<?xml version="1.0" encoding="UTF-8"?>
<svg id="Calque_1" data-name="Calque 1" xmlns="http://www.w3.org/2000/svg" xmlns:xlink="http://www.w3.org/1999/xlink" viewBox="0 0 378.48 379.81">
  <defs>
    <style>
      .cls-1 {
        fill: url(#Dégradé_sans_nom_15);
      }
    </style>
    <linearGradient id="Dégradé_sans_nom_15" data-name="Dégradé sans nom 15" x1="0" y1="189.9" x2="378.48" y2="189.9" gradientUnits="userSpaceOnUse">
      <stop offset="0" stop-color="#bb93dd"/>
      <stop offset=".31" stop-color="#ff49b0"/>
      <stop offset=".69" stop-color="#ff7376"/>
      <stop offset="1" stop-color="#ffe816"/>
    </linearGradient>
  </defs>
  <path class="cls-1" d="M258.49,16.38c.25,.14,.49,.32,.76,.42,5.5,1.96,11,3.92,16.5,5.87,.16,.06,.33,.09,.55,.15,.24-.29,.48-.59,.71-.87,4.91,1.77,28.5,17.42,32.38,21.51-.52,.65-1.05,1.32-1.6,2.02-2.53-1.92-4.98-3.79-7.44-5.66-.08,.07-.15,.15-.23,.22,1.72,2.06,2.51,4.7,5.11,6.27,7.11,4.29,13.67,9.36,19.89,14.87,.29,.26,.59,.51,.97,.83,.54-.45,1.06-.88,1.7-1.41,1.43,1.61,3.03,3.07,4.24,4.8,7.03,10.02,15.22,19.22,21.31,29.9,1.49,2.61,2.91,5.25,4.42,7.99-.87,.46-1.62,.85-2.21,1.16-3.97-6.33-7.88-12.56-11.78-18.78-.15,.07-.3,.14-.44,.22,.04,.25,.09,.51,.13,.76,.57,3.74,1.12,7.49,1.72,11.23,.1,.61,.27,1.31,.64,1.77,6.7,8.32,12.6,17.15,17.56,26.61,.12,.22,.27,.42,.41,.63l.4-.16c-1.4-4.28-2.81-8.56-4.26-12.98,.63-.29,1.4-.65,2.25-1.05,2.15,4.62,4.05,9.2,5.12,14.07,.72,3.27,1.11,6.62,1.69,9.92,.22,1.28,.42,2.59,.88,3.78,5.36,13.8,8.37,28.08,8.61,42.88,.16,9.76-1.6,19.27-4.71,28.53-.27,.8-.41,1.7-.38,2.55,.35,9.29-.15,18.52-2.4,27.55-1.2,4.84-2.55,9.71-4.45,14.31-4.04,9.74-9.38,18.79-15.76,27.21-.44,.57-.76,1.27-.97,1.97-2.64,8.45-6.89,16-12.55,22.77-.14,.17-.25,.35-.44,.62-.79-.61-1.46-1.13-2.22-1.72,3.41-4.23,6.21-8.72,8.15-13.75-.23,.21-.47,.41-.68,.64-7.1,7.86-14.88,14.97-23.22,21.49-.48,.37-.92,.94-1.11,1.5-1.15,3.52-2.22,7.06-3.31,10.59-.05,.15-.08,.31-.12,.47,.1,.08,.19,.16,.29,.24,4.65-4.58,9.3-9.16,14.07-13.85,.51,.46,1.15,1.03,1.84,1.65-.25,.32-.43,.6-.66,.85-6.07,6.77-12.65,13.01-19.76,18.69-2.76,2.2-5.25,4.82-8.22,6.66-7.06,4.39-14.31,8.47-21.54,12.59-2.57,1.46-5.3,2.65-7.95,3.98-.38,.19-.85,.38-1.06,.71-1.82,2.77-4.77,3.6-7.65,4.61-1.34,.47-2.61,1.1-4.04,1.48,.69-.63,1.38-1.26,1.81-1.65-10.01,3.16-20.3,6.4-30.52,9.62,.16,.12,.54,.43,1.3,1.03-2.26,.51-4.2,.99-6.16,1.36-.41,.08-1.04-.1-1.33-.4-.83-.87-1.72-.72-2.74-.52-10.08,1.94-20.26,3.12-30.52,3.52-.48,.02-.95,.06-1.43,.08,.04,.13,.08,.27,.12,.4-.51,.23-1.02,.64-1.53,.65-2.88,.08-5.71-.11-8.55-.86-1.85-.49-3.9-.27-5.86-.36-15.2-.72-30.06-3.35-44.51-8.15-.16-.05-.32-.13-.48-.19,.09-.09,.18-.17,.26-.26-.39-.48-.68-1.12-1.18-1.43-3.84-2.37-7.33-5.19-10.58-8.32-.53-.51-1.27-.89-1.98-1.13-6.62-2.18-13.25-4.31-20.09-6.52-.3,.49-.77,1.25-1.3,2.12-.53-.29-1.01-.56-1.5-.83-5.13-2.94-9.94-6.3-14.38-10.21-1.17-1.03-2.59-1.76-3.9-2.62-5.97-3.91-11.45-8.43-16.59-13.37-.18-.18-.35-.38-.58-.63,.61-.65,1.2-1.28,1.78-1.9,2.83,2.44,5.58,4.81,8.33,7.18,.07-.08,.15-.15,.22-.23-.19-.26-.37-.53-.57-.79-3.89-5.12-7.22-10.59-10.17-16.3-.41-.79-1.13-1.55-1.89-2.02-5.49-3.42-10.73-7.18-15.59-11.45-.28-.25-.58-.47-.88-.7-.09,.08-.19,.15-.28,.23,2.28,3.04,4.55,6.08,6.91,9.23-.62,.52-1.27,1.06-2.07,1.74-1.89-2.4-3.78-4.67-5.53-7.05-1.68-2.28-3.38-4.57-4.78-7.03-3.28-5.76-7.01-11.24-10.56-16.83-1.82-2.86-3.22-5.99-4.8-9-.12-.22-.17-.47-.28-.79,.78-.38,1.52-.75,2.34-1.15,.32,.55,.61,1.07,.91,1.58,.05-.02,.11-.03,.16-.05-.08-.34-.15-.68-.26-1-2.11-6.71-3.67-13.55-4.76-20.5-.12-.77-.51-1.55-.95-2.22-1.91-2.87-3.88-5.69-5.82-8.53-.19-.28-.38-.55-.78-1.14,.16,.95,.26,1.53,.37,2.2-.82,.25-1.6,.48-2.5,.75-.17-.5-.32-.89-.43-1.29C2.93,230.43,1.32,220.71,0,210.94c-.05-.39,.23-.81,.34-1.22,.1-.35,.26-.71,.25-1.06-.31-10.2,.46-20.31,2.22-30.36,.1-.58,.03-1.22-.1-1.8-1.19-5.27-1.67-10.59-1.25-15.99,.83-10.72,3.9-20.89,7.88-30.77,2.36-5.85,5.36-11.44,8.06-17.15,.29-.62,.57-1.28,.72-1.94,1.8-8.09,5.64-15.26,10.06-22.16,6.47-10.11,14.28-19.04,23.31-26.92,.56-.49,1.18-.92,1.65-1.49,.6-.74,1.08-1.58,1.65-2.43-.34-.41-.66-.81-1.09-1.34,7.9-7.53,16.03-14.76,24.87-21.07,.82,.43,1.04,2.2,2.4,.79-.33-.55-.66-1.1-1.01-1.68,7-5.3,14.69-9.08,23.34-11.27-.35-.75-.65-1.4-1.08-2.33,2.62-1.14,5.12-2.49,7.79-3.32,2.51-.78,5.22-.94,7.8-1.53,1.69-.38,3.31-1.02,4.97-1.55-.04-.13-.08-.27-.11-.4h-4.83c.41-.19,.52-.26,.64-.3,2.63-1.02,5.22-2.17,7.91-3.01,1.32-.41,2.81-.25,4.23-.33,.96-.06,1.97,.07,2.89-.16,2.16-.53,4.29-1.19,6.4-1.88,.5-.16,.88-.68,1.31-1.04,.64-.53,1.19-1.32,1.92-1.56,1.68-.54,3.44-.81,5.5-1.27-.4,.82-.61,1.27-.91,1.9,.49-.04,.86-.04,1.21-.1,1.03-.17,2.05-.43,3.09-.55,2.02-.22,3.83-.85,5.58-1.97,3.04-1.94,6.59-2.08,10.22-2.45,.13,.9,.25,1.74,.42,2.94,7.41-3.26,15.08-4.59,23.11-4.03,.05,.69,.09,1.33,.14,2.02,2.23-.24,4.38-.52,6.54-.68,2.13-.16,4.27-.22,6.4-.29,9.22-.32,18.04,1.81,26.82,4.32,3.6,1.03,7.34,1.52,10.93,2.58,5.64,1.66,11.2,3.6,16.79,5.43,.24,.08,.46,.22,.89,.43-.48,.86-.93,1.67-1.38,2.48-1.32-.54-2.62-1.17-3.97-1.62-2.94-.99-5.9-1.89-8.86-2.83-.08,.19-.15,.39-.23,.58,1.4,.6,2.76,1.34,4.2,1.78,2.08,.64,4.22,1.08,6.34,1.57,.84,.2,1.69,.33,2.53,.49Zm-58.32,260.96c17.31-3.99,33.93-9.26,50.39-16.04-5.58-16.51-11.11-32.88-16.67-49.37-15.23,6.04-30.47,10.77-46.16,14.49,4.17,17.04,8.29,33.89,12.45,50.92Zm-65.76-42.9c1.99,16.95,4.59,33.81,8.08,50.61,17.24-.64,34.16-2.73,50.91-6.24-4.2-17.05-8.35-33.92-12.47-50.66-7.77,1.27-15.4,2.7-23.08,3.74-7.73,1.04-15.51,1.7-23.43,2.55Zm39.39-69.38c4.08,18.04,8.2,36.3,12.34,54.62,15.54-3.64,30.47-8.32,45.14-14.16-6.58-17.64-13.5-34.97-20.71-51.8-12.31,3.8-24.41,7.53-36.76,11.35Zm66.47,44.25c5.56,16.55,11.06,32.89,16.57,49.28,.28-.12,.64-.25,1-.41,14.09-6.26,27.61-13.56,40.5-22.04,1.14-.75,1.31-1.35,.86-2.6-5.44-14.92-11.73-29.48-18.75-43.72-.17-.34-.37-.67-.61-1.08-12.7,7.99-25.95,14.76-39.57,20.58Zm-106.56,17.94c7.41,.3,41.94-4.44,45.55-6.22-4.12-18.23-8.23-36.46-12.34-54.67-6.17,1.07-12.28,2.26-18.44,3.18-6.15,.91-12.33,1.55-18.49,2.31-.46,5.49,2.49,49.37,3.72,55.41Zm142.96-44.69c-1.98-5.62-24.36-43.85-27.82-47.5-10.25,6.02-20.95,11.16-31.79,15.65,6.97,17.44,13.88,34.71,20.79,52,5.87-1.64,33.99-16.21,38.82-20.15Zm-64.11,141.3c.45-.05,.67-.05,.88-.09,16.52-3.82,32.61-8.96,48.26-15.48,.88-.37,1.06-.79,.83-1.68-3.35-12.64-6.67-25.29-10-37.93-.1-.36-.26-.71-.42-1.12-16.37,6.73-33.08,12.01-50.35,16.01,3.62,13.52,7.19,26.86,10.79,40.29Zm-126.66-91.51c-.03,.52-.07,.9-.06,1.28,.24,15.64,1.48,31.19,3.93,46.64,.15,.92,.52,1.22,1.36,1.37,14.3,2.56,28.72,3.63,43.24,3.57,.41,0,.83-.06,1.23-.09-1.49-8.49-3.07-16.84-4.4-25.22-1.34-8.42-2.45-16.88-3.68-25.4-13.93,.4-27.77-.15-41.62-2.16Zm109.11,52.68c-16.92,3.48-33.9,5.61-51.11,6.27,.08,.51,.1,.86,.18,1.19,2.83,12.55,6.14,24.98,10.27,37.18,.41,1.2,.96,1.46,2.14,1.43,12.84-.38,25.6-1.57,38.27-3.66,3.73-.61,7.45-1.33,11.23-2.01-3.68-13.54-7.31-26.9-10.98-40.39Zm-105.23-113.56c-.09,.38-.18,.67-.22,.96-2.37,17.17-3.64,34.43-3.79,51.76,0,1.01,.21,1.42,1.3,1.57,12.91,1.78,25.88,2.25,38.9,1.94,.25,0,.5-.08,.55-.09-1.24-18.49-2.47-36.91-3.71-55.45-10.9,.59-21.95,.4-33.03-.69Zm212.11,69.69c-13.84,9.28-28.29,17.04-43.19,23.6,3.53,13.5,7.01,26.84,10.49,40.17,.04,0,.13,0,.21-.04,14.62-6.61,28.54-14.46,41.68-23.67,.61-.42,.73-.84,.58-1.53-1.94-8.45-3.76-16.93-5.82-25.35-1.08-4.39-2.58-8.68-3.95-13.2Zm-16.51-56.01c7.46,15.07,14.09,30.39,19.73,46.2,.31-.18,.47-.25,.61-.35,10.99-7.94,21.22-16.75,30.38-26.78,.61-.67,.45-1.18,.18-1.85-5.62-14.1-12.57-27.51-20.51-40.43-.19-.32-.43-.61-.7-.98-9.09,9.13-19.05,17.02-29.69,24.19Zm-3.13-6.21c.24-.09,.38-.11,.48-.18,10.05-6.76,19.5-14.25,28.11-22.78,.7-.69,.46-1.12,.04-1.76-9.26-14.04-19.56-27.28-30.78-39.8-.34-.38-.59-.83-.9-1.27-7.83,7.06-16.02,13.02-24.63,18.48,10.12,15.41,19.33,31.12,27.68,47.32Zm-144.57,151.86c3.42,.17,6.86,.03,10.36,.03-.07-.25-.18-.66-.32-1.06-4.14-12.1-7.47-24.42-10.24-36.89-.24-1.06-.6-1.46-1.78-1.45-12.84,.13-25.62-.67-38.32-2.63-2.04-.32-4.08-.65-6.16-.97,0,.3-.02,.44,0,.56,2.43,12.43,5.7,24.62,10.36,36.42,.4,1.01,.94,1.47,2.01,1.69M185.78,99.31c-8.25,2.51-16.1,4.9-24.14,7.35,3.52,17.01,7.06,34.06,10.61,51.2,12.15-2.93,23.84-6.52,35.61-11-7.4-15.95-14.76-31.79-22.07-47.55Zm-102.16,180.78c-.05-.59-.07-.98-.13-1.36-2.45-15.31-3.61-30.74-3.86-46.23-.01-.92-.27-1.25-1.2-1.43-10.61-1.97-20.98-4.81-30.95-9.01-.26-.11-.54-.15-.87-.24-.06,.54-.13,.97-.16,1.4-.91,14.53-.64,29.03,1.28,43.47,.07,.51,.59,1.18,1.08,1.4,4.5,2,8.98,4.04,13.57,5.81,6.84,2.64,13.9,4.56,21.23,6.18Zm-4.05-55.4c.1-18.29,1.47-36.13,3.94-53.99-9.12-1.3-17.98-3.27-26.59-6.24-.14,.32-.23,.48-.28,.64-4.54,16.06-7.72,32.38-9.45,48.98-.09,.87,.29,1.16,.97,1.39,5.85,1.99,11.66,4.15,17.58,5.92,4.45,1.33,9.05,2.17,13.83,3.29Zm50.19-59.97c12.09-.97,23.91-2.78,35.65-5.32-3.54-17.21-7.04-34.26-10.56-51.37-.44,.08-.78,.14-1.11,.2-7.19,1.16-14.37,2.35-21.57,3.44-.99,.15-1.28,.44-1.34,1.41-1.08,16.82-1.38,33.65-1.14,50.49,0,.3,.04,.6,.07,1.14Zm84.52-20.41c10.57-4.33,20.86-9.29,30.77-15.07-.14-.27-.18-.4-.26-.5-9.67-14.23-20.04-27.92-31.18-41.04-.61-.72-1.05-.57-1.76-.23-4.9,2.39-9.81,4.75-14.74,7.07-1.68,.79-3.43,1.46-5.04,2.13,7.4,15.88,14.76,31.67,22.2,47.64Zm102.97,132.24c.28-.17,.54-.3,.77-.48,10.81-8.27,20.78-17.43,29.55-27.86,.36-.42,.53-1.18,.47-1.75-1.43-11.96-4.42-23.55-8.35-34.91-.21-.6-.44-1.2-.7-1.9-.29,.27-.49,.44-.67,.62-9.13,9.93-19.32,18.65-30.26,26.51-.69,.5-.78,.91-.55,1.72,2.4,8.38,4.83,16.75,7.05,25.18,1.11,4.2,1.79,8.5,2.68,12.86ZM123.85,112.59c-.6,0-1.38,0-2.16,0-5.93,.05-11.86,.15-17.78,.11-1.15,0-1.55,.33-1.86,1.38-4.18,14.14-7.52,28.48-10.1,43-.44,2.47-.82,4.95-1.25,7.54,10.85,1.06,21.5,1.17,31.94,.59,.41-17.61,.81-35.07,1.21-52.62Zm98.21,242.65c.64-.12,1.06-.19,1.48-.29,14.72-3.42,29.05-8.07,42.99-13.9,1.16-.49,1.47-1.07,1.3-2.23-.94-6.51-1.8-13.03-2.75-19.55-.29-2-.76-3.97-1.17-6.06-16.21,6.83-32.71,12.08-49.83,16.02,2.69,8.76,5.33,17.37,7.98,26.01Zm61.26-246.01c11.82,13.08,22.58,26.89,32.23,41.64,.25-.23,.43-.36,.57-.51,6.22-6.89,11.69-14.32,16.06-22.54,.48-.89,.45-1.47-.2-2.29-9.79-12.46-20.71-23.83-32.65-34.24-.25-.21-.53-.38-.87-.62-4.3,6.84-9.42,12.88-15.14,18.56Zm-8.91-.98c-12.23-12.98-25.26-24.91-39.13-35.66-5.57,3.81-11.01,7.54-16.51,11.3,11.41,13.33,22,27.33,31.93,41.97,8.4-5.26,16.32-10.99,23.71-17.61Zm-117.5,228.12c.09,.36,.12,.61,.21,.85,3.08,7.98,6.55,15.78,10.99,23.12,.55,.91,1.16,1.19,2.19,1.18,12.76-.2,25.43-1.4,38-3.53,2.43-.41,4.86-.89,7.33-1.34-2.74-8.75-5.43-17.34-8.14-26.02-16.69,3.4-33.51,5.35-50.58,5.73Zm162.29-179.77c8.36,13.47,15.62,27.37,21.51,42.05,.23-.19,.35-.25,.43-.35,6.85-8.37,12.72-17.37,17.04-27.32,.23-.54,.14-1.37-.1-1.94-4.36-10.21-9.7-19.9-15.81-29.15-1.73-2.61-3.53-5.18-5.43-7.96-4.81,9.12-10.77,17.14-17.63,24.67ZM48.98,274.62c.01,.17,0,.38,.04,.59,2.14,11.84,5.36,23.36,10.27,34.37,.29,.65,.91,1.28,1.54,1.63,9.3,5.07,19.11,8.9,29.27,11.85,1.74,.51,3.49,.97,5.42,1.51-.16-.53-.23-.81-.33-1.09-4.52-11.61-7.76-23.59-10.09-35.82-.19-1.01-.7-1.28-1.58-1.53-6.46-1.8-12.97-3.47-19.34-5.56-5.12-1.69-10.06-3.92-15.19-5.95Zm225.12,62.96c.39-.15,.64-.24,.87-.35,13.03-6.1,25.43-13.28,37.07-21.75,.54-.39,.96-1.24,1.05-1.92,.97-7.83,.73-15.67-.05-23.51-.11-1.13-.28-2.26-.44-3.51-.35,.2-.51,.27-.65,.37-12.92,9.01-26.61,16.66-40.94,23.16-.97,.44-.83,1-.7,1.76,.96,5.68,1.94,11.35,2.81,17.04,.43,2.83,.65,5.7,.99,8.72ZM84.52,163.89c2.77-17.53,6.59-34.69,11.68-51.65-.5-.09-.83-.15-1.17-.21-5.02-.89-10.05-1.73-15.05-2.72-1.09-.22-1.5,0-1.98,.94-6.49,12.87-12.04,26.14-16.68,39.78-.88,2.59-1.7,5.2-2.58,7.91,8.44,2.94,16.96,4.78,25.77,5.96Zm-42.83,48.55c1.34-8.42,2.47-16.84,4.08-25.17,1.61-8.32,3.72-16.55,5.63-24.93-6.22-2.62-12.24-5.91-17.72-10.25-.21,.46-.36,.77-.49,1.1-5.54,13.98-9.73,28.34-12.33,43.16-.19,1.09,.02,1.75,.82,2.49,5.84,5.47,12.44,9.81,19.55,13.43,.18,.09,.38,.15,.45,.17ZM239.76,68.76c13.85,10.73,26.78,22.59,38.94,35.46,5.59-5.46,10.55-11.31,14.7-17.95-13.54-11.09-27.88-20.75-42.97-28.95-3.62,3.89-7.12,7.64-10.67,11.45Zm-77.91,292.45c-.1-.21-.19-.41-.29-.59-4.35-7.18-7.82-14.79-10.8-22.62-.45-1.19-.97-1.63-2.31-1.64-13.5-.09-26.9-1.33-40.16-3.87-1.14-.22-2.28-.42-3.57-.66,.13,.38,.17,.59,.26,.78,3.84,8.16,8.39,15.88,14.34,22.7,.5,.57,1.3,1.04,2.04,1.21,11.19,2.63,22.55,4.07,34.02,4.68,2.11,.11,4.24,.02,6.47,.02ZM19.71,204.76c-.1,.46-.21,.78-.25,1.12-1.57,13.03-1.9,26.08-.38,39.15,.09,.79,.5,1.67,1.04,2.26,6.24,6.81,13.52,12.31,21.46,16.97,.18,.1,.37,.18,.65,.31,0-.41,.03-.69,0-.97-1.69-14.33-1.95-28.7-.89-43.09,.07-.95-.26-1.37-1.07-1.78-6.06-3.03-11.78-6.61-17.02-10.93-1.17-.96-2.3-1.97-3.54-3.03Zm333.1,37.12c.1-.19,.19-.39,.31-.56,6.51-8.7,12-17.98,16-28.11,.23-.58,.28-1.28,.22-1.9-1.09-11.3-3.73-22.25-7.55-32.93-.15-.42-.34-.83-.53-1.31-.16,.18-.24,.23-.27,.3-4.59,9.72-10.5,18.58-17.34,26.86-.28,.34-.38,1.07-.22,1.51,4.17,11.69,7.35,23.63,9.39,36.14ZM53.58,155.99c5.24-16.82,11.76-32.96,19.65-48.42-4.06-1.93-8.05-3.83-12.14-5.77,0,0-.07,.1-.14,.21-9.54,13.56-17.67,27.91-24.37,43.07-.34,.77-.07,1.14,.5,1.49,4,2.46,7.98,4.96,12.03,7.35,1.37,.81,2.91,1.35,4.48,2.07Zm281.49-34.54c.19-.35,.33-.57,.42-.79,2.52-6.18,4.17-12.56,4.71-19.23,.11-1.43-.25-2.43-1.19-3.49-9.31-10.48-19.7-19.77-31.01-28.03-.3-.22-.64-.4-1.05-.65-1.03,5.99-3.07,11.48-5.81,16.77,12.45,10.75,23.76,22.46,33.93,35.43Zm-16.29,188.93c.44-.32,.62-.43,.79-.56,9.61-7.66,18.44-16.13,26.19-25.68,.39-.49,.69-1.12,.84-1.73,2.1-8.62,2.69-17.38,2.31-26.23-.02-.55-.1-1.09-.16-1.63-.11-.07-.22-.15-.32-.22-.21,.32-.39,.66-.64,.95-8.6,9.81-18.23,18.51-28.63,26.36-.9,.68-1.11,1.34-.97,2.41,.95,7.06,1.24,14.16,.95,21.27-.07,1.6-.22,3.19-.36,5.07Zm-22.78-228.68c2.47-4.78,4.2-9.59,5.19-14.68,.26-1.34-.08-1.99-1.2-2.72-12.07-7.9-24.75-14.62-38.07-20.17-1.32-.55-2.64-1.08-3.86-1.57-1.58,3.51-3.11,6.9-4.7,10.43,14.96,8.17,29.19,17.73,42.63,28.72Zm-143.22-22.72c2.53,13.7,5.04,27.35,7.59,41.14,7.65-1.89,14.95-4.09,22.27-6.77-3.61-6.77-7.04-13.38-10.63-19.91-3.02-5.5-6.21-10.91-9.33-16.36-.31-.53-.52-1.03-1.38-.74-2.73,.91-5.49,1.71-8.52,2.64Zm-6.58,1.53c-2.56,.43-4.99,.94-7.45,1.2-1.38,.15-1.84,.71-2.08,2.03-2.22,12.27-3.76,24.64-4.89,37.05-.13,1.46-.22,2.92-.35,4.75,7.58-1.24,14.9-2.44,22.25-3.65-2.53-13.98-4.99-27.65-7.47-41.38Zm198.93,44.91c-.1,.42-.2,.7-.23,.99-.7,6.69-2.52,13.09-5.16,19.26-.39,.92-.35,1.53,.25,2.35,7.98,10.97,14.87,22.57,20.44,34.95,.12,.27,.28,.52,.49,.91,.16-.35,.29-.57,.36-.8,2.44-7.42,3.93-15.02,3.95-22.85,0-1.01-.22-2.09-.63-3.01-4.95-11.09-11.28-21.35-18.71-30.94-.21-.27-.45-.51-.76-.86Zm-155.87-14.35c6.34-2.92,12.8-5.9,19.42-8.95-.52-.63-.78-.97-1.07-1.28-3.14-3.4-6.15-6.92-9.45-10.15-6.83-6.67-13.8-13.2-20.74-19.76-.33-.31-.98-.67-1.29-.54-2.55,1.07-5.05,2.26-7.44,3.35,6.81,12.37,13.58,24.65,20.57,37.33Zm-64.7,15.09c.82-7.48,1.51-14.68,2.44-21.85,.93-7.17,2.11-14.3,3.18-21.47,0,0-.08-.07-.16-.07-2.09,.06-4.18,.22-6.27,.18-1.16-.02-1.76,.31-2.29,1.38-6.61,13.2-12.03,26.88-16.62,40.89-.1,.3-.12,.63-.17,.94h19.9Zm-103.78,30.22c-.29,.54-.47,.83-.62,1.14-5.68,11.88-10.04,24.22-12.8,37.11-.2,.96-.13,2.09,.19,3.02,1.89,5.54,4.83,10.52,8.5,15.07,.17,.22,.4,.39,.68,.66,.11-.47,.2-.8,.28-1.14,1.27-5.61,2.42-11.25,3.84-16.82,2.24-8.75,5.22-17.26,8.53-25.66,.17-.44,.24-1.22-.02-1.48-3.42-3.48-6.31-7.33-8.59-11.91Zm-.31,118.2c.02,.33,0,.5,.04,.67,1.99,10.81,5.12,21.25,9.79,31.22,.29,.62,.69,1.22,1.13,1.74,6.11,7.09,13.22,13.02,21.06,18.09,.12,.08,.28,.11,.56,.23-.1-.36-.14-.56-.22-.75-4.37-10.65-7.31-21.71-9.23-33.04-.17-.97-.58-1.5-1.41-1.97-7.6-4.27-14.61-9.34-20.84-15.45-.24-.23-.51-.43-.87-.73Zm42.78,62.94c.16,.41,.22,.61,.31,.79,4.42,8.09,9.73,15.51,16.32,21.98,.52,.51,1.15,.93,1.79,1.29,6.93,3.91,14.17,7.14,21.68,9.75,2.83,.98,5.68,1.88,8.89,2.93-.37-.56-.49-.77-.64-.97-5.24-6.7-9.46-14.02-12.96-21.75-.44-.98-1.04-1.43-2.07-1.69-10.35-2.6-20.37-6.11-29.99-10.72-1.04-.5-2.08-1.01-3.33-1.61ZM229.84,68.52c-.6-.47-.93-.75-1.27-.99-3.64-2.55-7.25-5.16-10.95-7.64-8.99-6.03-18.32-11.49-28.03-16.3-.42-.21-1.09-.43-1.41-.24-1.93,1.15-3.79,2.42-5.62,3.62,5.46,5.15,10.98,10.15,16.26,15.4,5.31,5.28,10.38,10.81,15.75,16.43,4.98-3.35,10.03-6.76,15.26-10.29ZM32.47,142.5c6.85-15.53,15.12-30.03,24.67-43.62-2.21-2.47-4.31-4.82-6.5-7.26-1.58,1.88-3.22,3.79-4.81,5.74-8.07,9.89-15.23,20.39-21.29,31.63-.27,.5-.43,1.3-.23,1.78,1.85,4.39,4.62,8.17,8.15,11.74ZM115.66,62.71c-1.72-.24-3.33-.39-4.89-.72-1.04-.22-1.65,.05-2.3,.87-8.19,10.17-15.55,20.91-22.14,32.19-1.51,2.59-2.97,5.21-4.51,7.92,.58,.17,.98,.33,1.4,.4,4.46,.78,8.93,1.52,13.39,2.32,1.2,.22,1.73-.12,2.12-1.34,3.28-10.26,7.11-20.32,11.54-30.14,1.72-3.81,3.55-7.57,5.4-11.5Zm152.45,282.36c-14.51,6.18-29.26,10.88-44.61,14.42,1.44,3.5,2.84,6.83,4.19,10.18,.34,.85,.85,.76,1.56,.6,12.48-2.88,24.6-6.83,36.35-11.91,.58-.25,1.2-.91,1.38-1.51,1.15-3.75,1.21-7.63,1.13-11.78ZM244.56,54.07c-4.81-2.26-9.12-4.35-13.49-6.32-10.59-4.76-21.47-8.75-32.63-11.96-.43-.12-1.11-.27-1.33-.06-1.19,1.17-2.28,2.45-3.42,3.71,14.2,7.1,27.66,15.62,40.72,25.25,3.34-3.5,6.61-6.92,10.14-10.62Zm-22.83,317.93c-1.42-3.51-2.79-6.71-4-9.96-.38-1.01-.82-1.2-1.81-1-12.55,2.5-25.22,4.02-38.01,4.48-1.93,.07-3.87,0-5.97,0,1.63,3.26,7.67,8.87,10.58,9.96,.47,.18,1.03,.2,1.54,.17,7.48-.46,14.97-.79,22.43-1.47,5.06-.46,10.08-1.43,15.24-2.18ZM301.71,60.04c0-.58,.01-.91,0-1.25-.13-3.65-.88-7.17-2.13-10.6-.35-.97-.92-1.59-1.8-2.09-11.29-6.45-23.15-11.57-35.54-15.49-1.23-.39-2.47-.75-3.87-1.18,.07,.62,.15,1.03,.17,1.45,.1,1.87,.33,3.74,.22,5.6-.06,1.11,.27,1.5,1.22,1.88,11.78,4.67,23.1,10.27,33.94,16.83,2.53,1.53,5.02,3.13,7.79,4.85ZM65.02,96.15c1.06,.6,1.82,1.11,2.64,1.49,2.41,1.11,4.87,2.13,7.27,3.26,1.13,.53,1.68,.33,2.31-.83,7.46-13.71,16.02-26.7,25.81-38.87,.21-.26,.37-.55,.58-.87-1.03-.41-2-.69-2.87-1.17-.93-.52-1.52-.3-2.27,.38-8.33,7.54-16.17,15.55-23.39,24.15-3.39,4.04-6.65,8.19-10.09,12.45Zm208.62,258.55c.36-.17,.84-.37,1.3-.59,9.09-4.46,17.73-9.68,26.12-15.36,3.55-2.4,6.08-5.45,7.74-9.28,1.06-2.43,1.84-4.98,2.73-7.48,.11-.3,.11-.64,.19-1.15-2.11,1.43-4.04,2.75-5.99,4.05-9.68,6.41-19.83,12-30.33,16.95-.46,.22-1.05,.76-1.08,1.19-.29,3.85-.47,7.71-.68,11.66ZM5.55,185c-.15,.49-.23,.64-.25,.8-1.25,8.92-1.72,17.89-1.25,26.88,.15,2.87,.21,5.81,.93,8.56,1.71,6.55,4.83,12.5,8.68,18.06,.17,.25,.4,.45,.72,.8-.16-3.18-.37-6.14-.46-9.1-.29-9.87,.3-19.7,1.58-29.5,.06-.43,.04-1.03-.21-1.32-3.91-4.5-7.17-9.42-9.73-15.19ZM340.02,92.85c-.23-4.87-2.5-12.95-4.64-16.67-.21-.37-.51-.7-.81-1.02-8.28-8.94-17.56-16.7-27.71-23.42-.29-.19-.62-.34-1.13-.62,1.23,3.95,1.81,7.73,1.72,11.59-.02,.99,.29,1.56,1.09,2.14,9.86,7.04,19,14.91,27.39,23.66,1.32,1.38,2.62,2.77,4.11,4.35Zm-88.22-52.38c-.33-.31-.38-.4-.45-.42-.94-.35-1.88-.7-2.82-1.03-14.69-5.13-29.74-8.75-45.14-10.94-.38-.05-1,.1-1.19,.38-.56,.81-.96,1.73-1.35,2.47,7.89,2.82,15.79,5.39,23.5,8.47,7.75,3.1,15.31,6.69,23.26,10.21,1.36-2.97,2.81-6.1,4.2-9.13Zm118.06,181.86c-.24,.2-.37,.26-.41,.35-4.25,9.13-9.61,17.58-15.77,25.54-.28,.36-.41,.97-.37,1.44,.54,6.98,.45,13.94-.37,20.89-.17,1.45-.38,2.89-.57,4.33,5.74-7.9,10.52-16.3,13.59-25.51,2.89-8.68,3.85-17.73,3.89-27.04Zm-.7-73.68c-.16,.42-.22,.52-.23,.63-.7,7.16-2.42,14.07-4.88,20.82-.19,.53-.09,1.28,.12,1.84,2.64,7.07,4.87,14.27,6.43,21.66,.66,3.11,1.19,6.24,1.82,9.55,5.66-18.61,2.71-36.49-3.26-54.51ZM93.03,53.98c-.51,.35-.96,.62-1.37,.94-5.1,3.89-10.28,7.67-15.27,11.7-7.24,5.85-13.95,12.28-20.31,19.07-.3,.32-.65,1.01-.51,1.25,1.42,2.46,3.33,4.52,5.59,6.39,10.17-13.61,21.46-25.99,34.06-37.27-.77-.73-1.43-1.35-2.2-2.07Zm-46.06,26.1c-.24,.21-.54,.45-.81,.72-8.92,8.97-16.8,18.77-23.38,29.59-.65,1.07-1.14,2.4-1.19,3.63-.1,2.78,.1,5.57,.22,8.35,.03,.6,.22,1.2,.35,1.86,.25-.14,.3-.15,.32-.19,7.3-13.02,15.89-25.11,25.74-36.31,.2-.23,.42-.63,.36-.89-.5-2.24-1.06-4.46-1.62-6.75ZM125.74,361.52c.07,.2,.08,.3,.13,.35,4.65,4.06,9.77,7.43,15.77,9.01,10.11,2.65,20.44,3.96,30.87,4.52,.35,.02,.71-.03,.8-.03-2.5-2.82-5.08-5.65-7.54-8.57-.66-.78-1.26-1.11-2.27-1.13-10.13-.21-20.2-1.06-30.19-2.78-2.51-.43-5.01-.89-7.58-1.35ZM203.76,23.42c16.68,2.37,32.83,6.37,48.99,12.16-.23-2.37-.44-4.39-.62-6.4-.11-1.21-.75-1.71-1.94-2-13.21-3.23-26.59-5.21-40.16-5.94-1.99-.11-3.99-.01-6.05-.01,0,0-.07,.11-.08,.23-.05,.6-.08,1.21-.13,1.98ZM53.02,81.83c.18,.04,.37,.08,.55,.12,.31-.36,.61-.72,.94-1.07,10.58-11.08,22.18-20.97,34.73-29.74q1.48-1.03,.68-2.81c-.16,.05-.33,.08-.47,.15-13.12,7.23-25.32,15.75-36.44,25.8-.29,.26-.57,.74-.55,1.1,.14,2.15,.36,4.3,.56,6.45ZM5.24,166.83c.07-.16,.16-.31,.2-.47,3.06-11.94,7.45-23.39,12.92-34.43,.17-.33,.33-.76,.27-1.1-.57-3.25-1.2-6.48-1.8-9.7-.13,.21-.34,.52-.5,.86-4.29,8.65-7.66,17.64-10.06,27.01-1.51,5.9-1.86,11.84-1.02,17.85ZM294.88,39.95c-2.63-3.47-5.29-6.98-9.33-9.06-10.01-5.16-20.5-9.01-31.42-11.7-.25-.06-.53-.05-.81-.08,.97,1.57,1.83,3.08,2.82,4.51,.38,.55,.99,1.1,1.61,1.29,7.98,2.39,15.84,5.14,23.44,8.56,4.6,2.07,9.13,4.32,13.69,6.49Zm-45.48-17.32c-.22-.41-.32-.69-.5-.91-1.02-1.25-2-2.53-3.12-3.69-.47-.49-1.21-.87-1.89-.99-9.68-1.74-19.45-2.58-29.28-2.56-4.13,0-8.25,.2-12.42,.31,.19,1.41,.84,1.81,2.05,1.84,12.06,.3,24,1.66,35.83,4.01,3.06,.61,6.1,1.3,9.32,1.99ZM54.08,67.98c.17-.12,.35-.24,.51-.37,10.66-9.16,22.19-17.03,34.5-23.81,.55-.3,.82-1.1,1.22-1.67-.12-.09-.23-.19-.35-.28-.35,.14-.71,.27-1.06,.43-10.81,4.88-20.92,10.93-30.41,18.05-2.64,1.98-3.51,4.71-4.41,7.65Zm-5.21,.53c-9.44,9.16-17.68,18.78-23.16,30.49,.22-.04,.36-.15,.45-.28,6.19-8.75,13.18-16.8,20.9-24.24,.21-.21,.46-.45,.53-.72,.42-1.62,.8-3.26,1.28-5.25ZM237,12c.06-.16,.12-.32,.17-.48-2.05-.73-4.06-1.82-6.17-2.12-8.01-1.14-16.08-1.11-24.14-.5-3.15,.24-6.28,.65-9.42,.98-.02,.19-.05,.38-.07,.57,.73,.16,1.47,.5,2.18,.46,8.93-.61,17.86-.65,26.79,.05,3.56,.28,7.11,.69,10.66,1.04Zm-85.1,41.5c2.47-.73,4.78-1.42,7.35-2.18-3.29-4.99-6.43-9.75-9.56-14.51-.12,.05-.24,.11-.36,.16,.85,5.44,1.7,10.89,2.58,16.53Zm-6.55,1.55c-.84-5.57-1.65-10.94-2.45-16.3-.12-.02-.24-.05-.36-.07-1.48,5.8-2.96,11.6-4.51,17.67,2.67-.47,4.92-.87,7.33-1.3Zm11.5-19.96c-.09,.11-.18,.21-.28,.32,2.98,4.52,5.97,9.04,8.99,13.61,2.1-.93,4.1-1.81,6.43-2.83-5.26-3.86-10.2-7.48-15.14-11.1Zm-21.41,5.77c-.07-.06-.15-.12-.22-.18-3.35,5.45-6.71,10.9-10.06,16.35,.11,.11,.21,.22,.32,.32,1.78-.1,3.56-.16,5.33-.32,.31-.03,.76-.42,.84-.73,1.29-5.14,2.54-10.3,3.8-15.46Zm46.85-.44c.01-.16,.02-.32,.04-.48-5.96-2.38-11.92-4.76-17.89-7.14,4.22,3.51,8.51,6.78,12.82,10.02,.21,.16,.68,.2,.91,.07,1.4-.79,2.76-1.64,4.13-2.47Zm-68.46,15.86c.06,.12,.11,.25,.17,.37,1.15,.13,2.3,.21,3.44,.4,.9,.14,1.38-.14,1.85-.96,2.43-4.18,4.95-8.31,7.43-12.45,.17-.28,.32-.56,.48-.84-.1-.08-.19-.16-.29-.23-4.36,4.57-8.73,9.14-13.09,13.72Zm-20.43-20.96c-.08-.09-.16-.18-.24-.27-.12,.01-.26,0-.37,.04-9.27,3.34-17.99,7.75-25.93,13.6-1.03,.76-1.86,1.81-2.78,2.73,.26,.13,.35,.12,.42,.07,8.66-5.91,17.83-10.87,27.47-15,.55-.23,.96-.77,1.44-1.17Zm97.39-1.76c-6.46-1.34-12.52-2.6-18.58-3.86,4.92,2.33,9.87,4.45,14.84,6.54,.24,.1,.65,.09,.83-.06,.89-.74,1.72-1.54,2.91-2.62Zm-72.12,9.99c-.06-.07-.12-.13-.18-.2-4.55,3.53-9.09,7.06-13.89,10.79,1.17,.43,1.93,.77,2.72,.95,.33,.07,.87-.1,1.1-.35,3.44-3.71,6.84-7.45,10.25-11.19Zm60.72-17.77c-.02,.07-.04,.14-.07,.21,.07,.04,.13,.11,.21,.12,4.68,1.05,9.35,2.11,14.04,3.12,.32,.07,.82-.16,1.05-.41,.4-.44,.64-1.01,1.13-1.82-5.61-.42-10.98-.82-16.35-1.22ZM213.32,4.63c-4.51-.98-18.91,.14-23.47,1.97,.6,.15,1.22,.27,1.82,.21,1.34-.15,2.67-.45,4.01-.58,6.15-.58,12.31-1.12,17.64-1.6ZM98.5,50.21c.71,.59,1.21,1.01,1.71,1.43,3.78-3,7.44-5.91,11.1-8.83-.05-.07-.11-.15-.16-.22-4.16,2.51-8.32,5.01-12.65,7.63Zm86.33-29.12c0,.13-.01,.27-.02,.4,4.1,.34,8.2,.69,12.4,1.04v-1.44h-12.38Zm-44.36-9.58c-1.53,.45-2.82,.83-4.29,1.26,1.54,1.22,2.87,2.27,4.29,3.39v-4.65Zm6.43,2.79c1.3-1.73,2.46-3.28,3.67-4.9-3.76,.03-3.98,.24-3.78,3.73,.02,.3,.05,.6,.11,1.17Zm-59.98,18.55c.05,.1,.11,.2,.16,.3,3.73-1.33,7.46-2.64,11.18-4,.51-.19,.93-.62,1.39-.93-.09-.16-.17-.33-.26-.49-4.16,1.71-8.32,3.41-12.48,5.12Zm8.9,13.21c.16,.1,.33,.19,.49,.29,2.99-1.84,5.98-3.68,8.97-5.52-3.02,1.16-5.92,2.53-8.78,3.98-.35,.18-.46,.82-.68,1.25Zm37.04-28.41c-2.43-2.59-4.16-2.94-6.02-1.28,1.97,.42,3.93,.84,6.02,1.28Zm53.88-1.16h8.98l.09-.49c-.45-.15-.92-.47-1.35-.42-2.5,.25-4.99,.58-7.72,.91Zm-30.67-5.32c1.56-1.04,3.11-2.09,4.79-3.21-2.68-.43-3.52,1.71-4.79,3.21Zm-59.61,28.32c.08,.12,.17,.24,.25,.36,1.91-.92,3.82-1.84,5.73-2.76-2.02,.75-4.37,.8-5.98,2.4ZM179.59,4.09c.02,.13,.04,.26,.07,.38,2.24,.27,4.22-.92,6.37-1.18-.02-.12-.04-.23-.06-.35-2.12,.38-4.25,.77-6.37,1.15Zm-62.2,16.71c1.46-.08,2.93-.15,4.39-.23-1.49-.24-3-.93-4.39,.23Zm68.89-8.82c0,.11,.02,.22,.03,.34,1.28-.17,2.57-.34,3.85-.51-.03-.17-.05-.35-.08-.52-1.27,.23-2.53,.47-3.8,.7Z"/>
</svg>