<?xml version="1.0" encoding="UTF-8"?>
<svg id="Calque_1" data-name="Calque 1" xmlns="http://www.w3.org/2000/svg" viewBox="0 0 248.9 294.81">
  <defs>
    <style>
      .cls-1 {
        fill: #ff7376;
      }
    </style>
  </defs>
  <path class="cls-1" d="M147.28,.95c-5.3,1.15-10.96,3.34-11.34,3.49-5.6,2.19-13.71,5.35-20.94,12.21-4.32,4.1-7.53,8.63-12.21,15.7-3.82,5.76-5.08,8.68-8.72,10.47-5.37,2.64-11,.43-15.7-.87,0,0-13.89-3.84-34.02,0-21.83,4.16-34.73,25.29-35.76,27.04-16.92,28.6-1.14,59.85,.87,63.68,1.85,3.52,15.75,29.37,39.25,34.02,4.31,.85,11.35,1.47,11.34,2.62,0,1.38-10.13,1.17-20.06,4.36-15.67,5.04-24.99,16.64-27.04,19.19C.1,208.85-3.92,232.81,4.22,253.92c11.07,28.74,38.92,37.28,42.74,38.38,3.87,1.11,33.01,8.97,57.57-10.47,22.1-17.48,23.54-43.62,23.55-51.47,0-4.89,.06-30.62-19.19-47.11-2.67-2.28-17.3-14.81-33.73-13.78-1.37,.09-5.41,.43-5.53-.18-.21-1.03,11.18-1.81,22.68-8.72,10.13-6.09,10.97-11.3,17.45-12.21,8.23-1.16,14.52,6.18,20.06,10.47,18.97,14.67,51.92,11.25,73.27,.87,36.36-17.68,43.66-57.79,44.49-62.81,.94-5.72,6.16-37.33-13.96-62.81-11.53-14.6-25.82-20.14-43.62-27.04C165.38-2.5,151,.14,147.28,.95Z"/>
</svg>