<?xml version="1.0" encoding="UTF-8"?>
<svg id="Layer_1" data-name="Layer 1" xmlns="http://www.w3.org/2000/svg" viewBox="0 0 90.99 131.92">
  <defs>
    <style>
      .cls-1 {
        fill: #ffab52;
      }
    </style>
  </defs>
  <path class="cls-1" d="M33.42,109.14c4.4-.3,6.8,3.9,11.8,4.1,6.6,.3,11-2,14.3-6.3,2.5-3.3,5.7-6.2,9-6.8,6.6-1.2,6.2-5.8,6.3-10.1,0-2.1-.4-2.3,2.1-2.6,5.8-.6,6-6.1,6.7-10.2,1.2-7.3,.9-14.6,0-22.1-.8-6,.2-12.4,2.1-18.3,1.6-5,2.5-10.2,4.9-15,1.1-2.1-.6-4.3-.9-6.3-.8-4.6-4.7-8.2-7.4-11.5-2.4-2.8-9.4-3.2-14.5-2.6-2.6,.3-4.9,1.7-7.2-.7-.4-.4-2-.2-2.6,.3-3.1,2.5-5.7,2.3-8.6-.4-1.2-1.2-2.8-.1-3.9,.7-1.2,.9-2.4,.8-3.6,.1-4.8-2.9-9.3-1.3-11.7,3.7-1.9,3.9-3,9.3-9.9,5.6-2-1.1-5.9,1.2-5.9,4.3,.1,9.4-3.8,17.9-5.1,27-.8,5.7,.3,11.6-.3,17.4-.5,5.9-1.8,11.8-3.2,17.6-.6,2.3-.6,4.5-.4,6.6,.9,8.4-4.5,15.8-3.2,24.2,.4,2.4-2.5,3.3-2.2,6.8,.7,7.7,4.7,11.6,10.3,15,6.9,4.2,13,2.5,18-4.4,1.2-1.6,2.8-2.9,4.1-4.4,1.7-1.9,3.2-4.1,1-6.3-2.3-2.2,1.1-3.8,0-5.4Z"/>
</svg>