<?xml version="1.0" encoding="UTF-8"?>
<svg id="Calque_1" data-name="Calque 1" xmlns="http://www.w3.org/2000/svg" viewBox="0 0 555.93 439.18">
  <defs>
    <style>
      .cls-1 {
        fill: #faa9dc;
      }

      .cls-2 {
        fill: #fff;
      }
    </style>
  </defs>
  <path class="cls-1" d="M180.41,3.37c-14.92-6.72-31.07-1.72-38.7,.63-5.13,1.59-18.3,5.84-29.81,18.4-2.28,2.49-12.23,13.72-15.86,31.72-1.33,6.57-5.37,31.67,11.42,53.92,2.95,3.91,16.2,20.52,37.43,24.11,0,0,21.65,3.66,48.85-7.61,0,0,14.16,4,28.55,7.61,0,0,.07,.02,10.15,2.54q0,6.98,0,6.98c.04,.21,.08,.4,0,.63-.44,1.31-3.63,.86-5.71,1.27-5.01,1-4.73,7.26-12.05,13.32-1.66,1.38-3.48,2.88-6.34,3.81-5.22,1.68-7.56-.64-10.78,.63-5.5,2.17-9.15,13.03-5.71,19.67,3.25,6.26,11.45,6.11,12.05,11.42,.22,1.9-.81,2.14-2.54,6.34-.98,2.39-4.1,10.27-2.07,18.74,.37,1.53,.98,3.97,2.71,6.63,0,0,2.69,4.14,16.49,11.42,0,0,0,0,0,.01,.52,1.98,1.38,6.69,0,7.6-1.08,.71-2.51-1.57-5.71-2.54-5.42-1.63-8.8,2.69-12.05,1.27-3.37-1.47-3.11-7.75-3.81-13.32,0,0-.33-3.32-5.07-26.64-3.43-16.87-16.04-28.12-27.19-38.06-6.63-5.91-19.69-17.31-40.06-22.84-30.54-8.29-56.9,2.21-67.88,7.61-4.86,2.39-35.27,17.97-49.48,53.92-2.96,7.48-9.63,25-6.34,47.58,4.11,28.23,21.08,45.78,28.55,53.29,5.78,5.81,29.39,29.54,61.53,30.45,0,0,4.76,.13,44.41-6.34,0,0,10.77,21.2,25.37,34.26,16.71,14.94,36.43,17.43,39.33,17.76,5.39,.61,26.09,2.63,45.67-10.78,4.27-2.93,17.61-12.32,23.47-29.18,6.53-18.79-2.88-27.65,5.71-43.14,5.75-10.36,16.95-18.97,22.84-16.49,3.87,1.63,2.41,6.75,5.71,14.59,8.53,20.25,33.42,22.07,33.62,34.89,.05,3.2-1.49,4.16-3.81,8.88-11.12,22.62-.16,49.87,1.27,53.29,8.32,19.93,23.25,30.11,28.55,33.62,5.34,3.54,29.22,19.36,59,12.05,15.31-3.76,39.27-15.36,45.67-35.52,2.75-8.66,2.96-21.1,10.15-23.47,2.57-.85,4.79,0,6.98,.63,0,0,11.25,3.26,29.81-.63,17.76-3.73,31.04-20.7,36.79-34.89,2.12-5.23,5.9-16.71,3.81-31.08-1.13-7.71-2.58-17.67-10.15-25.37-10.14-10.31-24.67-9.88-26.01-18.4-.44-2.78,.58-6.17,.63-6.34,1.5-4.86,4.93-7.53,6.34-8.88,9.05-8.64,4.7-29.36,3.81-33.62-1.18-5.61-3.05-14.53-10.15-22.2-10.27-11.1-24.02-11.5-24.74-19.67-.15-1.74,.43-2.2,1.9-6.34,.67-1.87,4.79-13.42,4.44-22.84-.32-8.69-4.65-20.79-13.96-26.64-7.77-4.88-16.22-3.65-17.76-8.88-.6-2.04,.3-3.55,1.27-6.34,0,0,3.65-10.55,1.27-21.57-2.73-12.63-15.2-19.52-17.76-20.93-4.22-2.33-14.04-7.75-23.47-4.44-8.22,2.88-10.24,10.32-17.76,10.15-3.54-.08-3.13-1.73-9.52-3.17-4.69-1.06-11.31-2.56-16.49,.63-3.01,1.85-3.01,3.72-6.98,5.71-2.46,1.23-4.79,1.68-6.98,1.9-8.35,.86-13.14-1.61-18.4-1.9-9.98-.55-20.91,6.83-25.37,15.22-5.19,9.78-1.35,20.47-5.07,21.57-1.46,.43-3.32-1.19-6.98-4.44-6.34-5.64-5.86-7.3-9.52-10.15-6.87-5.35-12.62-2.63-15.86-7.61-1.78-2.74-1.41-5.65-1.27-8.25,0,0,.7-13.06-6.34-29.18-5.38-12.31-16.21-18.62-23.47-22.84-9.52-5.54-21.74-12.65-33.62-8.88-6.03,1.91-10.21,6.06-16.49,4.44-3.76-.97-5.82-3.37-8.25-5.71,0,0-7.71-7.44-22.2-13.96Z"/>
  <path class="cls-2" d="M271.13,49.05c-5.17-2.36-12.53-.97-15.22,3.17-4.35,6.68,3.17,20.93,3.17,20.93h0s4.81,16.51,15.86,29.18c1.51,1.73,.27,.1,16.49,15.22,2.61,2.43,9.5,8.86,9.52,8.88h0c6.36,.36,6.98,0,6.98,0,3.6-2.1,3.61-13.14-1.9-17.76-2.42-2.02-3.88-1.13-8.25-2.54-9.01-2.91-17.43-11.47-18.4-20.3-.25-2.28,.34-1.51,.63-8.25,.3-6.79,.48-10.78-.63-15.22-1.15-4.61-2.69-10.79-8.25-13.32Z"/>
  <path class="cls-2" d="M257.17,175.28s7.19,2.4,7.61,2.54c13.77,4.57,24.74,3.17,24.74,3.17,12.84-1.64,24.73-11.22,30.45-22.2,7.19-13.79,3.69-27.93,7.61-28.55,3.69-.58,10.15,11.42,10.15,11.42h0c-8.46,15.48-8.71,16.45-8.88,17.76-1.25,9.85,5.72,16.13,2.54,19.67-1.49,1.66-3.71,1.03-6.98,1.27-14.13,1.05-29.08,17.05-27.91,28.55,.32,3.11,1.84,6.14,.63,6.98-1.19,.83-3.8-1.33-7.61-3.81-4.5-2.92-10.03-5.86-13.32-6.98-10.93-3.71-15.69,6.39-24.74,2.54-1.66-.71-1.73-1.15-13.27-16.39-.28-.37-.99-1.31-.69-2.01,.6-1.34,4.13,.15,7.61-.63,7.49-1.69,12.05-13.32,12.05-13.32h0Z"/>
  <path class="cls-2" d="M154.4,187.34c-3.53,.73-6.16,4.5-6.98,7.61-2.24,8.5,6.98,19.67,6.98,19.67h0c5.35,20.1,7.61,25.37,7.61,25.37,3.43,8,7.72,17.65,16.49,20.3,1.77,.53,4.44,1.34,6.34,0,2.08-1.46,2.1-4.66-1.27-25.37-1.35-8.28-2.05-12.05-3.81-17.13-.59-1.7-1.9-5.44-4.12-9.66-1.32-2.5-11.94-22.72-21.25-20.79Z"/>
  <path class="cls-2" d="M403.71,106.14c-2.79-.37-6.98,1.9-6.98,1.9h0s1.63,5.51,1.9,6.98c1.72,9.17-19.74,17.6-18.4,26.64,.48,3.21,3.28,2.83,6.98,7.61,6.01,7.78,7.96,20.92,2.54,31.72,0,0-5.77,11.5-18.31,15.62,0,0-.04,.01-.13,.04-.2,.06-.4,.13-.59,.19h0s1.1,3.91,1.9,6.34c1.4,4.25,2.46,5.63,3.17,7.61,2.93,8.12-4.33,13.55-1.9,20.3,1.28,3.56,3.85,3.56,8.88,7.61,10.73,8.64,21.63,26.85,18.4,39.96-.51,2.05-1.78,5.68,0,7.61,1.8,1.96,5.61,.96,7.61,.63,15.26-2.52,29.11,16.31,34.89,12.05,2.35-1.73,.1-4.88,3.81-10.15,2.77-3.95,5.93-4.89,5.71-6.98-.27-2.56-5.32-3.92-6.98-4.44-12.51-3.97-23.71-21.76-26.01-36.16-.22-1.38-3.34-22.59,7.61-36.79,2-2.59,6.19-7.19,5.07-12.05-.84-3.67-4.27-5.55-6.34-6.98-12.66-8.72-19.76-31.54-13.96-44.41,2.99-6.63,8.26-8.06,7.61-13.32-.47-3.85-3.39-3.84-8.88-12.05-3.88-5.8-4.64-9.12-7.61-9.52Z"/>
  <path class="cls-2" d="M458.26,76.32c-3.16-.15-5.57,4.18-5.71,4.44-2.21,4.09,.17,6.23,.63,16.49,.24,5.26-.2,9.05,1.27,13.32,.8,2.33,2.11,4.68,2.34,5.07,1.47,2.61,2.21,3.91,2.74,3.81,1.28-.25-1.03-7.84,.63-17.13,1.68-9.39,5.8-11.46,4.44-17.76-.77-3.54-3.19-8.09-6.34-8.25Z"/>
  <path class="cls-2" d="M491.25,137.86c-2.39-4.78-8.3-9.27-12.69-7.61-3.95,1.5-4.92,7.34-5.07,8.25-.7,4.2,.9,6.38,1.9,11.42,1.21,6.05-.46,6.05,0,14.59,.27,4.9,.77,12.82,5.07,20.93,.78,1.47,.43,.58,5.07,7.61,5.43,8.21,8.14,12.32,9.52,15.22,3.77,7.96,2.15,9.49,5.71,14.59,1.33,1.91,6.34,9.1,11.42,8.25,5.29-.89,8.5-10.11,7.61-17.13-.08-.64-1.13-8.08-6.98-12.05-1.74-1.18-2.71-1.24-6.34-2.54-5.18-1.84-10.35-4.26-12.69-5.71-7.83-4.86-13.3-17.2-10.78-26.64,1.7-6.39,5.72-6.4,8.25-15.22,1.03-3.59,2.54-8.87,0-13.96Z"/>
  <path class="cls-2" d="M504.57,266.63c-2.31,.04-4.3,2.45-5.07,4.44-1.31,3.37,.44,6.66,6.98,17.13,8.43,13.49,11.28,17.22,12.69,19.03,6.18,7.93,9.33,11.9,12.69,12.05,6.03,.28,12.92-6.69,12.69-13.32-.15-4.19-3.11-7.08-6.34-10.15-8.73-8.28-13.81-5.47-20.93-12.05-8.15-7.52-8.03-17.21-12.69-17.13Z"/>
</svg>