<?xml version="1.0" encoding="UTF-8"?>
<svg id="Calque_1" data-name="Calque 1" xmlns="http://www.w3.org/2000/svg" viewBox="0 0 238.82 239.15">
  <defs>
    <style>
      .cls-1 {
        fill: #ff49b0;
      }
    </style>
  </defs>
  <path class="cls-1" d="M49.66,90.66c-5.41-.79-14.77-2.16-24.74,2.02-12.83,5.38-18.64,16.58-20.19,19.69-1.33,2.66-9.63,20.02-.5,38.37,5.97,12,17.96,21.53,30.79,22.72,16.25,1.5,29.29-10.82,32.31-7.07,1.5,1.86-1.3,5.41-3.03,10.6-4.95,14.89,3.32,30.2,5.55,34.33,10.06,18.61,33.84,31.81,57.55,26.75,17.58-3.75,31.53-16.78,36.35-29.28,4.64-12.04,4.29-20.19,4.29-20.19-.27-6.39-2.1-11.42,.25-13.12,2.19-1.59,6.27,1.09,8.58,2.02,16.96,6.81,36.25-3.64,37.86-4.54,19.01-10.63,27.68-36.04,22.72-55.02-.8-3.04-3.01-11.48-9.84-18.93-.65-.71-1.26-1.3-14.89-12.37,.13-2.78,.08-6.5-.64-10.8-.41-2.49-1.48-7.8-4.41-13.94-3.01-6.31-6.49-10.36-9.34-13.63-3.83-4.39-8.82-10.12-17.42-14.89-6.37-3.53-12.79-7.1-21.2-6.81-3.72,.12-5.76,.96-8.08-.5-4.36-2.77-2.38-8.85-5.55-14.64-4.32-7.89-15.14-9.68-20.7-10.6-4.54-.75-19.05-3.12-30.29,6.56-13.51,11.64-14.73,34.18-6.56,42.91,3.73,3.99,9.45,5.12,10.6,10.6,.79,3.77-1.57,6.52-2.52,9.59-4.55,14.55-.02,28.61,1.51,32.81,1.53,4.18,7.41,20.29,19.21,25.36,.98,.42,3.63,1.47,3.5,2.4-.21,1.59-8.06,.22-16.66,2.52-12.23,3.27-16.93,11.52-20.19,9.59-2.49-1.47-.11-6.47-.5-14.64-.61-12.8-7.7-27.26-19.69-33.82-4.92-2.69-9.36-3.34-14.13-4.04Z"/>
</svg>