<?xml version="1.0" encoding="UTF-8"?>
<svg id="Calque_1" data-name="Calque 1" xmlns="http://www.w3.org/2000/svg" viewBox="0 0 640.02 478.8">
  <defs>
    <style>
      .cls-1 {
        fill: #ffaebf;
      }

      .cls-2 {
        fill: none;
        stroke: #fcf0d3;
        stroke-miterlimit: 10;
        stroke-width: 2px;
      }
    </style>
  </defs>
  <path class="cls-2" d="M288.76,10.19c-14.58,28.78-21.95,61.19-21.24,93.45,.51,22.98,4.98,46.42-.88,68.64-3.54,13.41-10.77,25.95-11.71,39.78"/>
  <path class="cls-2" d="M144.94,258.02c11.91,19.32,32.55,31.77,53.94,39.36,11.64,4.13,23.98,7.06,36.28,5.97,12.3-1.09,24.64-6.67,31.73-16.78,7.93-11.3,17.24-20.36,22.16-33.77,3.91-10.66,5.87-21.93,7.81-33.12,1.1-6.38,2.21-12.77,3.31-19.15"/>
  <path class="cls-2" d="M421.74,.39c9,21.34,8.78,46.38-.58,67.56-3.2,7.25-7.4,14.02-10.87,21.14-3.66,7.52-6.5,15.44-8.45,23.57,7.21,3.15,17.78-4.14,22.5,2.16,1.19,1.59,1.52,3.66,1.71,5.64,.98,10.15-.2,21.63,2.28,31.97,3.16,13.17,12.72,19.07,21.96,27.87,25.37,24.18,42.97,55.18,60.19,85.7,6.44,11.42,12.96,23.02,16.02,35.77"/>
  <path class="cls-2" d="M158.72,162.56c-12.56,.72-23.55-7.57-34.27-14.15-22.6-13.89-49-21.53-75.52-21.86"/>
  <path class="cls-2" d="M167.42,452.14c-.75-5.07,1.76-9.98,4.19-14.49,15.43-28.63,33.6-53.44,54.11-78.24,2.79-3.38,6.22-6.55,10.51-7.51,9.37-2.09,22.98-4.93,19.66-19.15-2.65-11.35-21.67-14.07-21.85-25.72"/>
  <path class="cls-2" d="M349.33,227.72c5.48,1.24,10.2,4.58,14.77,7.84,13.58,9.7,27.15,19.4,40.73,29.11,7.05,5.04,14.17,10.12,22.13,13.54,4.89,2.1,10.04,3.55,15.17,4.99,23.05,6.48,46.19,12.97,69.92,16.17,19.53,2.63,39.29,3.01,59,3.39,22.98,.44,45.97,.87,68.95,1.31"/>
  <path class="cls-2" d="M260.07,193.71c19.27-8.56,40.18-13.41,61.26-14.2,5.52-.21,11.11-.13,16.47,1.2,4.55,1.13,8.82,3.13,13.13,4.96,12.39,5.25,25.37,9.1,38.62,11.47,8.49,1.52,17.3,2.41,25.66,.32,19.01-4.77,31.2-23.52,48.97-31.79,15.96-7.43,34.44-5.61,52.05-5.14,30.61,.83,57.39-8.83,81.25-28"/>
  <path class="cls-2" d="M303.99,345.64c5.21-27.46,16.33-53.38,27.37-79.06,10.66-24.79,21.32-49.58,31.99-74.37"/>
  <path class="cls-2" d="M399.94,202.87c5.39,13.7,10.78,27.41,16.17,41.11,4.15,10.56,8.38,22.01,5.51,32.99-1.16,4.44-3.42,8.5-5.69,12.49-10.54,18.61-18.73,38.27-29.49,56.7-4.01,6.88-9.92,13.51-17.79,14.72-2.41,.37-4.87,.2-7.3,.03-14.24-1-26.07-2.76-39.54-7.72-22.1-8.14-44.19-16.28-66.29-24.42"/>
  <path class="cls-2" d="M176.07,221.34c4.24-5.55,4.06-14.03-.41-19.39-1.97-2.36-4.59-4.08-6.71-6.32-6.16-6.51-7.13-16.22-7.77-25.16-.49-6.76-.93-13.82,1.73-20.06,3.47-8.15,11.64-13.35,19.95-16.41,9.73-3.58,20.12-4.9,30.32-6.78,16.99-3.13,41.68-7.21,56.76-15.63,6.69-3.73,15.29-3.77,22.01-.1,4.39,2.4,7.95,6.22,12.53,8.23,6.03,2.65,12.96,1.83,19.49,.96,25.18-3.36,50.35-6.73,75.53-10.09"/>
  <path class="cls-2" d="M342.2,183.93c-.96-6.78-.55-13.76,1.18-20.39,.78-2.98,1.83-5.91,2.3-8.95,.53-3.43,.33-6.92,.34-10.39,.01-9.42,1.57-18.85,4.6-27.77"/>
  <path class="cls-2" d="M278.83,187.51c3.98,5.29,8.75,10.11,14.57,13.26,3,1.62,6.22,2.78,9.43,3.92,5.72,2.04,11.44,4.09,17.16,6.13,10.07,3.6,20.33,7.24,31.02,7.71"/>
  <path class="cls-2" d="M245.38,24.36c-9.33,2.22-15.22,11.27-21.05,18.24-20.91,24.97-53.22,36.49-82.1,51.54-11.31,5.9-22.56,12.71-30.32,22.84-7.4,9.66-11.07,21.59-14.6,33.23-7.75,5.09-12.15,12.04-14.72,20.95-2.57,8.91-4.13,18.27-8.68,26.35-8.61,15.29-26.82,24.02-33.28,40.34-1.9,4.8-2.64,9.96-3.37,15.07-1.52,10.66-3.03,21.31-4.55,31.97-1.46,10.23-9.66,19.79-19.93,18.65-2.91-.32-6.04-1.33-8.64,.04-3.13,1.66-3.74,6.05-2.61,9.41s3.49,6.15,5.06,9.33c4.36,8.86,2.09,19.53,4.48,29.12,4.19,16.82,24.83,27.33,40.9,20.81,1.59-.64,3.35-1.43,4.93-.78,1.95,.8,2.48,3.27,2.66,5.37,.55,6.56,.26,13.19-.87,19.68-.54,3.14-1.27,6.42-.23,9.43,2.33,6.77,12.08,7.72,18.33,4.22,6.24-3.5,10.41-9.75,15.92-14.32,12.82-10.64,33.37-10.42,45.96,.49,50.87,44.03,121.93,57.23,185.3,79.84,3.02,1.08,6.28,2.16,9.38,1.32,6.2-1.68,8.19-9.74,13.59-13.23,6.11-3.96,14.21-.86,20.57,2.69,13.05,7.28,22.61,7.53,35.77,.56,26.04-13.8,52.08-27.6,78.12-41.39,15.59-8.26,31.68-16.93,42.43-30.93,2.18-2.84,4.22-5.97,7.32-7.75,2.17-1.25,4.7-1.74,6.88-2.97,4.02-2.26,6.28-6.64,9.41-10.03s8.52-5.84,12.23-3.09c1.44,1.07,2.44,2.82,4.16,3.33,3.59,1.08,5.93-3.68,6.63-7.37,2.43-12.76,1.46-24.04,2.88-36.76,1.54-13.87,5.9-27.28,6.88-41.23,1.02-14.41-1.54-28.79-2.87-43.17-1.95-21.13-1.26-42.59-5.68-63.35-3.4-15.99-10.61-30.53-20.86-43.15-6.58-8.11-16.43-12.89-22.7-20.97-3.97-5.13-5.17-11.82-6.24-18.22-5.85-34.98-4.58-76.78-47.33-84.9-12.58-2.39-25.51-.15-38.23,1.38-26.68,3.21-53.83-.25-80.68,1.65-26.02,1.84-52.03,3.67-78.07,5.25-9.78,.59-20.41-.93-29.88,.1-.79,.09-1.55,.22-2.3,.4Z"/>
  <path class="cls-2" d="M50.61,367.73c-5.14,2.92-9.14,7.8-10.98,13.42-.18,.55-.34,1.15-.16,1.7,.35,1.05,1.82,1.31,2.81,.8s1.59-1.5,2.19-2.43c2.55-3.94,5.77-7.45,9.48-10.34,1.11-.86,2.64-1.7,3.85-.98,.85,.51,1.15,1.59,1.25,2.58,.73,7.35-5.43,14.38-3.75,21.58,2.08,.84,4.05-1.37,5.13-3.33,6.79-12.35,9.88-26.6,17.68-38.34,3.46-5.21,7.76-9.79,12.04-14.34,3.43-3.65,6.18-7.72,9.5-11.54,9.97-11.46,17.04-25.18,26.8-36.82,4.33-5.17,9.17-9.9,13.53-15.04,2.98-3.51,5.74-7.2,8.49-10.89,5.61-7.51,11.21-15.01,16.82-22.52,5.27-7.06,10.46-14.53,17.69-19.57,7.64-5.33,17.04-7.69,26.34-8.18,9.3-.49,18.6,.79,27.8,2.2,11.12,1.7,21.96,3.78,32.33,8.17,8.31,3.52,16.34,7.68,24.35,11.84,16,8.3,31.99,16.6,47.99,24.9,4.27,2.22,8.54,4.43,12.74,6.8,11.88,6.69,23.08,14.52,34.26,22.34,7.55,5.28,11.67,11.41,17.37,18.65,13.88,17.6,27.76,35.2,41.65,52.8,3.91,4.96,7.84,9.93,12.44,14.25,16.17,15.16,25.01,34.9,42.91,47.98,6.64,4.85,13.84,9.01,19.8,14.68-9.76-18.3-22.99-34.48-36.13-50.54-28.17-34.42-56.56-68.63-85.09-102.76-8.02-9.59-15.16-20.45-24.75-28.46-3.59-3-7.5-5.7-11.89-7.32-5.71-2.11-11.92-2.28-17.98-2.91-9.11-.96-18.1-3.02-26.72-6.12-18.66-6.73-32.64-20.12-51.51-26.26-5.75-1.87-11.55-2.79-17.38-4.2-5.26-1.27-10.17-3.55-15.57-4.53-8.85-1.6-16.95-.68-25.75,.22-8.06,.83-14.86,1.63-22.08,5.88-6.17,3.62-11.54,8.43-16.76,13.32-8.09,7.57-15.97,15.46-22.43,24.47-18.44,25.69-37.49,47.42-58.76,70.82-14.37,15.82-20.95,37.48-39.53,48.03Z"/>
  <path class="cls-2" d="M344.53,249.07c-2.38,.01-4.98,.11-6.76,1.69-.82,.73-1.41,1.86-1.13,2.92,.38,1.47,2.07,2.09,3.51,2.57,6.55,2.18,12.42,5.95,18.36,9.45,1.55,.92,3.14,1.83,4.9,2.25,.79-3.04,1.02-6.28,.19-9.31-.84-3.03-2.82-5.81-5.64-7.2-1.11-.55-2.35-.82-3.45-1.39-.76-.39-1.26-.86-2.11-1.02-2.43-.46-5.4,.02-7.87,.03Z"/>
  <path class="cls-2" d="M367.95,269.57c.24,1.03,.57,2.08,1.25,2.9,.61,.74,1.45,1.23,2.28,1.72,3.79,2.21,7.59,4.42,11.38,6.63,.79,.46,1.59,.93,2.46,1.23,.58,.2,1.19,.33,1.8,.39,.65,.06,1.44-.05,1.75-.62,.26-.48,.07-1.07-.14-1.57-2.7-6.3-8.91-10.28-13.18-15.64-.95-1.19-1.8-2.45-2.86-3.54-.8-.82-1.7-1.53-2.59-2.24-.55-.44-1.91-1.54-2.62-.85-.55,.53-.22,3.02-.23,3.77-.02,2.63,.11,5.27,.71,7.83Z"/>
  <circle class="cls-1" cx="127.65" cy="317.54" r="3.57"/>
</svg>