<?xml version="1.0" encoding="UTF-8"?>
<svg id="Calque_1" data-name="Calque 1" xmlns="http://www.w3.org/2000/svg" viewBox="0 0 338.21 392.52">
  <defs>
    <style>
      .cls-1 {
        fill: #bb93dd;
      }
    </style>
  </defs>
  <path class="cls-1" d="M265.3,71.46c7.64-.72,9.35,3.23,18.05,3.98,7.92,.68,13.81-1.98,22.34-5.81,12.74-5.73,21.18-9.4,26.62-18.36,6.34-10.44,9.27-27.52,0-39.47-10.67-13.76-32.69-14.47-44.98-7.34-9.54,5.53-9.83,13.81-22.03,18.36-8.04,2.99-15.55,2.25-19.28,1.84-11.19-1.23-17.92-5.89-22.95-8.26-18.03-8.49-43.45-1.27-58.75,9.18-19.31,13.2-26.55,51.87-29.37,63.34-.65,2.64-2.08,8.88-7.34,12.85-4.23,3.19-8.43,3.02-20.19,3.67-14.18,.79-21.32,1.22-23.87,2.75-9.17,5.53-13.62,20.03-10.1,31.21,2.09,6.61,6.51,10.61,11.01,14.69,11.96,10.81,18.97,7.75,24.78,16.52,4.58,6.91,4.59,15.39,4.59,21.11,0,8.26-1.97,8.61-1.84,14.69,.25,11.33,7.43,24.61,18.36,30.29,8.21,4.26,11.7,.68,21.11,6.43,1.73,1.06,12.3,7.51,11.01,13.77-.83,4.06-6.25,6.05-7.34,6.43-7.54,2.57-12.83-2.2-20.19-3.67-15.33-3.07-30.58,9.54-37.63,18.36-3.72,4.65-7.39,9.24-7.96,15.91-.64,7.46,3.13,11.3,.61,17.13-2.09,4.84-6.86,7.05-9.18,8.26-7.4,3.86-14.35,2.41-21.11,1.84-2.7-.23-22.03-1.72-35.8,4.59-1.46,.67-22.95,10.93-23.87,32.13-.57,13.33,7.17,26.96,18.36,32.13,15.69,7.25,37.98-2.22,49.57-12.85,3.58-3.28,6.32-6.84,11.93-8.26,8.71-2.21,15.47,2.96,23.87,6.43,16.6,6.84,32.57,4.1,40.39,2.75,7.22-1.24,29.48-6.38,43.14-24.78,6.5-8.75,9.45-18.35,13.77-32.43,5.81-18.94,4.55-25.89,11.01-29.98,8.49-5.38,15.64,3.44,30.29-.92,1.64-.49,16.93-5.28,21.11-18.36,4.51-14.11-7.11-28.03-8.26-29.37-10.38-12.1-21.35-8.59-28.15-21.11-3.98-7.33-3.99-15.49-3.98-17.44,.06-8.18,2.8-10.06,3.37-16.83,.77-9.1-2.9-20.8-10.71-27.23-9.58-7.88-17.72-1.51-31.67-10.4-6.71-4.27-13.97-11.57-12.39-15.3,1.58-3.73,11.68-3.2,19.28-2.75,7.29,.43,9.99,1.45,13.77,1.84,13.55,1.38,28.24-6.51,36.72-17.44,3.24-4.18,9.18-11.85,8.26-21.11-.52-5.24-2.84-6.98-1.84-11.01,1.63-6.55,10.02-11.23,17.44-11.93Z"/>
</svg>