<?xml version="1.0" encoding="UTF-8"?>
<svg id="Layer_1" data-name="Layer 1" xmlns="http://www.w3.org/2000/svg" viewBox="0 0 61.1 144.03">
  <defs>
    <style>
      .cls-1 {
        fill: #ff49b0;
      }
    </style>
  </defs>
  <path class="cls-1" d="M19.3,140.84c.2-8.5,11.9-12.7,7.9-22.4,0-.1,.6-.6,.9-.7,5.2-1.7,5.4-6.2,6.5-10.6,1.2-4.5,5.2-8.7,5-12.9-.4-11.8,9.4-18.7,12.4-28.8,1.5-5.1,4.3-10.1,6.4-15.2,1.9-4.3-.6-8.9,2.3-14.9,1.1-3.9-.3-9.5-1.5-14.9-.5-2.6,.8-6.1-2.8-7.8-3.4-1.6-5.5-4.5-7.3-8.1-2.7-5.6-8.6-6-12.8-1.3-3,3.4-5.7,7.2-8.8,10.6-2.7,3-4.4,6.2-5.3,10.2-1.7,8-6.6,14.9-10.9,21.3-5.1,7.7-8.8,15.7-11.3,24v66.3c3.6,2.9,8,4.7,11.9,7.3,4.2,2.8,7.4-.5,7.4-2.1Z"/>
</svg>