<?xml version="1.0" encoding="UTF-8"?>
<svg id="Layer_1" data-name="Layer 1" xmlns="http://www.w3.org/2000/svg" viewBox="0 0 59.49 132.37">
  <defs>
    <style>
      .cls-1 {
        fill: #faa9dc;
      }
    </style>
  </defs>
  <path class="cls-1" d="M58.79,91.95c.2,.1,.4,.1,.6,.2v-8.1c-.3,2.1-.4,4.3-1.2,6.3-.5,1.2-1,1.2,.6,1.6Z"/>
  <path class="cls-1" d="M58.79,91.95c-1.5-.4-1.1-.4-.6-1.7,.7-2,.9-4.2,1.2-6.3v-1.6c-2.2-1.8-2.7-4.8-4.9-6.7-1.5-1.2-3.3-3.2-.6-5.4,1-.8,.1-1.9-.2-2.8-.4-.9-1.5-1.3-2.3-.7-1,.8-1.2,.4-1.4-.5-.3-1.1-.6-2.1-.2-3.3,2.1-5.9-2.3-10.4-3.3-15.7,0-.2-.5-.5-.8-.6-1.5-.5-2-1.8-2.1-3.2-.2-1.7-.8-2.6-2.8-3-1.9-.4-4-1.6-1.6-4.2,1-1.2,1.1-2.8-.4-3.8-.9-.6-1.3-1.3-1.3-2.2-.1-2.1-1.5-2.6-3.5-2.4,.8-1.2,3.3-1.2,2.1-2.8-1.8-2.3-1.3-5.1-2.2-7.6-1-2.7-3.9-3-5.1-5.3-.5-.9-.6-2.4-2.1-3-2.8-1.2-4.9-3.6-7.4-5.3-1.6-1.1-3.4-3-5-2.9-2.4,.3-4.6,.7-6.9-.3-.8-.3-2-1.1-2.9-.3C2.69,2.05,1.69,4.35,.19,6.15c-.6,.7,.4,2.9,1,4.3,.4,1,.6,1.8,.6,2.9,.1,2.4,.6,5.4,1.8,6.9,1.9,2.2,1.3,4.4,1.9,6.6,.4,1.4-1.8,1.6-1.4,2.8,1,2.9-.3,6,.9,8.6,1.1,2.5-1.3,3.9-.9,6,.6,2.8,.5,5.9,1.7,8.4,1.1,2.4-.7,4.2-.1,6.3,.9,3.5,1.5,7.1,2,10.6,.8,5.2,2.6,10.2,3.3,15.3,.5,3.7,3.4,6.3,3.6,10.5,.3,4.8,2.5,9.4,5,13.8,2.3,4,4.3,8.1,5.8,12.6,1.4,4,4.3,7.2,9,8.5,4.5,1.2,9,3.3,13.6,1.3,2.1-.9,5-.1,6.2-2.3,1.2-2.4,3.3-3.2,5.2-4.5,0,0,.1,0,.1-.1v-32.5c-.4,0-.5-.1-.7-.2Z"/>
  <path class="cls-1" d="M59.49,82.65c0-.1-.1-.2-.2-.3h0v1.7c.1-.5,.1-.9,.2-1.4Z"/>
</svg>