<?xml version="1.0" encoding="UTF-8"?>
<svg id="Layer_1" data-name="Layer 1" xmlns="http://www.w3.org/2000/svg" viewBox="0 0 74.52 149.16">
  <defs>
    <style>
      .cls-1 {
        fill: #ff7376;
      }
    </style>
  </defs>
  <path class="cls-1" d="M5.12,82.86c-3.9-8.8-2.5-22.1,2.6-24-1.9-4.6-4.6-8.9-2.5-14.4,.7-1.9,1-4.6-1.8-6.6-2.1-1.5-.6-13.4,2-15.1,4.1-2.7,3.3-7.1,3.2-10.2-.2-9.3,1.7-10.6,10.5-12,12.7-2.1,23.7,2.1,34.5,6.8,4.5,2,9.2,4.2,13.5,6.6,2.4,1.3,3.4,5.8,4.2,9,1.4,5.4,4.5,12.2,2.6,16.3-3.2,6.9,4.3,14.8-3.2,20.4,2.2,6.6-2.7,12.5-2.1,18.8,.4,4.4,0,8.5-2.5,11.8-1.9,2.4-.3,4.8-.2,6.5,.3,5.7,.1,11.4-1.2,16.8-1.8,7.4-1.3,15.1-2.9,22.5-1.2,5.5-5.7,8.1-7.7,12.7-.1,.2-.3,.4-.4,.4-6.9-.9-14.2-.7-20.6-2.9-7.3-2.6-10.5-11.2-17.7-14.7-1.4-.7-1.6-2.4-1.8-3.7-.6-3.1-.8-6.2-5.3-6.3-.9,0-2.3-1.9-2.6-3.1-1.4-5.6-3.4-11.2-2.6-17.1,.4-3.4-.4-6.3-1.9-9.4-1.8-4-2.4-8.2,3.9-9.1Z"/>
</svg>