<?xml version="1.0" encoding="UTF-8"?>
<svg id="Layer_1" data-name="Layer 1" xmlns="http://www.w3.org/2000/svg" viewBox="0 0 71.74 208.51">
  <defs>
    <style>
      .cls-1 {
        fill: #bb93dd;
      }
    </style>
  </defs>
  <path class="cls-1" d="M67.88,179.58c1.5,3.3,6.2,6.5-1,8.9-2.2,.7-4.7,3.6-4.4,7.1,.1,.9-5.5,6.3-6.4,6.6-3.2,1.2-6.6,1.7-9.2,4.8-2.5,2.9-6.5,.7-9.9,1.2-7.4,1.1-13.2-3.5-19.3-6.9-6.4-3.6-9.5-9.4-10.1-15.7-.6-7-2-13.8-3.9-20.5-2-7.3-3.6-15-2.2-22,1.2-6.1-2-11.1-1.4-16.6,.8-7.9,.1-15.7,.8-23.6,.5-5.4,.9-10.9,.9-16.3-.2-3.5,3.1-5.5,2.3-9.4-.8-4.1,.4-8.6,.6-13,.2-3.2,4.2-4.4,3.5-8.5-.7-4.3,2.3-8.4,1.9-13-.2-1.9,3-1.4,3-3.5,0-3.4,1.7-6.4-.3-10.4-1.2-2.5-1-7.1-.2-10.7,.3-1.5,.3-2.9,.1-4.4-.3-2.2-1-5.8,.1-6.6,2.9-2.1,5.1-5,8.2-6.8,1.5-.9,3,.6,4.1,1.5,3.1,2.3,6.4,2.5,10,3,2.3,.3,4.3,3.8,6.2,6,3,3.4,5.1,7.7,8.8,10.5,1.9,1.4,1.6,3.6,1.9,5.1,1,3.8,5.1,5.3,5.6,9.6,.5,4-1.3,7.9,.5,12,1.2,2.7-2.5,1.8-4.1,3.3,2.9,.4,4.9,1.6,4.3,4.7-.3,1.4,.1,2.6,1.1,3.7,1.9,2.1,1.1,4.4-.8,5.8-4.4,3-1.8,5.4,.8,6.7,2.7,1.3,3.3,2.9,3,5.4-.3,2.1-.1,4.1,2,5.4,.4,.3,.9,.8,.9,1.2-.6,8.1,4.3,16.3-1,24.2-1.1,1.6-.9,3.2-.9,4.9,0,1.5,.1,2.1,1.9,1.3,1.4-.6,2.9,.3,3.1,1.8,.2,1.3,1,3.3-.7,4.1-4.7,2.2-2.7,5.8-1,8.2,2.6,3.6,2.2,8.2,4.8,11.6,.1,.1,.2,.4,.1,.5-1.5,3.6-2.6,7.5-4.8,10.7-1.1,1.6-1.8,1.5,.3,2.6,3.3,1.9,4.2,4.2,.4,6.9-2,1.4-.6,6.3,1.8,7.5,3.2,1.6,2.2,4.6,2.4,7.2,.4,2.9-1,4.1-3.8,3.9Z"/>
</svg>